<svg width="69" height="42" viewBox="0 0 69 42" fill="none" xmlns="http://www.w3.org/2000/svg">
<path d="M42.9001 34.6244H26.3475C27.5397 34.1902 26.5661 32.3218 25.7651 31.5208C26.1048 30.3569 23.7468 29.2314 23.7468 28.0987L21.7803 27.5868C21.7803 21.0947 26.9679 16.6401 34.4456 16.6401C41.9233 16.6401 46.5861 21.1831 46.9399 27.2418L46.2985 26.7233C45.4877 27.9411 40.9605 30.7387 42.9001 32.9195C40.3948 33.9982 41.2831 34.7794 42.9001 34.6244ZM34.4456 18.352C27.9093 18.352 23.0733 22.7408 23.0733 28.5836L24.391 29.2811C24.391 29.9608 24.6747 30.2152 25.1553 30.6958C25.6359 31.1763 26.7146 32.1689 26.1048 32.9195H43.0617C41.768 32.9195 42.4195 31.7849 42.9001 31.3044C43.3807 30.8238 44.3872 28.9585 44.3872 28.2789H45.4928C45.4928 22.4396 40.9819 18.352 34.4456 18.352Z" fill="#798033"/>
<path d="M34.4457 14.0791C33.1197 14.0795 31.8235 13.6866 30.7208 12.9502C29.6182 12.2138 28.7587 11.1669 28.251 9.94199C27.7434 8.71707 27.6104 7.36911 27.8688 6.0686C28.1273 4.76808 28.7656 3.57343 29.7031 2.63572C30.6406 1.69801 31.8351 1.05937 33.1355 0.80057C34.436 0.541765 35.784 0.674422 37.009 1.18176C38.2341 1.6891 39.2811 2.54834 40.0178 3.6508C40.7545 4.75327 41.1477 6.04944 41.1477 7.37539C41.1464 9.15262 40.4399 10.8567 39.1834 12.1136C37.9268 13.3704 36.2229 14.0773 34.4457 14.0791ZM34.4457 2.38174C33.4576 2.3814 32.4915 2.67413 31.6698 3.2229C30.848 3.77166 30.2075 4.55182 29.8292 5.46467C29.4509 6.37752 29.3518 7.38206 29.5445 8.35122C29.7372 9.32039 30.213 10.2106 30.9117 10.9093C31.6105 11.6081 32.5007 12.0839 33.4699 12.2766C34.439 12.4692 35.4436 12.3702 36.3564 11.9919C37.2693 11.6136 38.0494 10.973 38.5982 10.1513C39.147 9.32956 39.4397 8.36352 39.4393 7.37539C39.438 6.05141 38.9114 4.78204 37.9752 3.84584C37.039 2.90965 35.7697 2.3831 34.4457 2.38174Z" fill="#798033"/>
<path d="M63.999 41.3283H45.4185C44.2857 41.3283 43.1994 40.8783 42.3984 40.0774C41.5974 39.2764 41.1475 38.19 41.1475 37.0573V35.6445C41.1475 28.8638 47.2311 23.344 54.7087 23.344C62.1864 23.344 68.27 28.8604 68.27 35.6445V37.0573C68.27 38.19 67.82 39.2764 67.019 40.0774C66.2181 40.8783 65.1317 41.3283 63.999 41.3283ZM54.7087 25.0558C48.1724 25.0558 42.8559 29.8052 42.8559 35.6479V37.0607C42.8559 37.7404 43.1258 38.3922 43.6064 38.8728C44.087 39.3533 44.7388 39.6233 45.4185 39.6233H63.999C64.6786 39.6233 65.3304 39.3533 65.811 38.8728C66.2916 38.3922 66.5616 37.7404 66.5616 37.0607V35.6445C66.5616 29.8052 61.2451 25.0558 54.7087 25.0558Z" fill="#798033"/>
<path d="M54.7084 20.783C53.3824 20.7833 52.0862 20.3905 50.9835 19.654C49.8809 18.9176 49.0214 17.8708 48.5137 16.6458C48.0061 15.4209 47.8731 14.073 48.1315 12.7725C48.39 11.4719 49.0283 10.2773 49.9658 9.33958C50.9033 8.40187 52.0978 7.76323 53.3982 7.50443C54.6987 7.24562 56.0467 7.37828 57.2717 7.88562C58.4968 8.39296 59.5438 9.2522 60.2805 10.3547C61.0172 11.4571 61.4104 12.7533 61.4104 14.0792C61.4091 15.8565 60.7026 17.5606 59.4461 18.8174C58.1895 20.0743 56.4856 20.7812 54.7084 20.783ZM54.7084 9.0856C53.7203 9.08526 52.7542 9.37799 51.9325 9.92676C51.1107 10.4755 50.4702 11.2557 50.0919 12.1685C49.7136 13.0814 49.6145 14.0859 49.8072 15.0551C49.9999 16.0242 50.4757 16.9145 51.1744 17.6132C51.8732 18.3119 52.7634 18.7877 53.7326 18.9804C54.7017 19.1731 55.7063 19.074 56.6191 18.6957C57.532 18.3174 58.3121 17.6769 58.8609 16.8552C59.4097 16.0334 59.7024 15.0674 59.702 14.0792C59.7007 12.7553 59.1741 11.4859 58.2379 10.5497C57.3017 9.61351 56.0324 9.08695 54.7084 9.0856Z" fill="#798033"/>
<path d="M23.4687 41.3283H4.88818C3.75545 41.3283 2.6691 40.8783 1.86813 40.0774C1.06717 39.2764 0.617188 38.19 0.617188 37.0573V35.6445C0.617188 28.8638 6.70079 23.344 14.1785 23.344C21.6561 23.344 27.7397 28.8604 27.7397 35.6445V37.0573C27.7397 38.19 27.2897 39.2764 26.4888 40.0774C25.6878 40.8783 24.6015 41.3283 23.4687 41.3283ZM14.1785 25.0558C7.64212 25.0558 2.32559 29.8052 2.32559 35.6479V37.0607C2.32559 37.7404 2.59557 38.3922 3.07615 38.8728C3.55673 39.3533 4.20854 39.6233 4.88818 39.6233H23.4687C24.1484 39.6233 24.8002 39.3533 25.2808 38.8728C25.7613 38.3922 26.0313 37.7404 26.0313 37.0607V35.6445C26.0313 29.8052 20.7148 25.0558 14.1785 25.0558Z" fill="#798033"/>
<path d="M14.1781 20.783C12.8522 20.7833 11.5559 20.3905 10.4532 19.654C9.3506 18.9176 8.49109 17.8708 7.98344 16.6458C7.47579 15.4209 7.34279 14.073 7.60126 12.7725C7.85974 11.4719 8.49807 10.2773 9.43554 9.33958C10.373 8.40187 11.5675 7.76323 12.8679 7.50443C14.1684 7.24562 15.5164 7.37828 16.7414 7.88562C17.9665 8.39296 19.0136 9.2522 19.7503 10.3547C20.487 11.4571 20.8802 12.7533 20.8802 14.0792C20.8788 15.8565 20.1723 17.5606 18.9158 18.8174C17.6593 20.0743 15.9554 20.7812 14.1781 20.783ZM14.1781 9.0856C13.19 9.08526 12.224 9.37799 11.4022 9.92676C10.5805 10.4755 9.93993 11.2557 9.56163 12.1685C9.18333 13.0814 9.08427 14.0859 9.27696 15.0551C9.46965 16.0242 9.94545 16.9145 10.6442 17.6132C11.3429 18.3119 12.2331 18.7877 13.2023 18.9804C14.1715 19.1731 15.176 19.074 16.0888 18.6957C17.0017 18.3174 17.7818 17.6769 18.3306 16.8552C18.8794 16.0334 19.1721 15.0674 19.1718 14.0792C19.1704 12.7553 18.6439 11.4859 17.7077 10.5497C16.7715 9.61351 15.5021 9.08695 14.1781 9.0856Z" fill="#798033"/>
</svg>
