<svg width="25" height="46" viewBox="0 0 25 46" fill="none" xmlns="http://www.w3.org/2000/svg">
<path d="M12.318 0.453125C9.1351 0.493333 6.08795 1.74868 3.80039 3.96216C1.51283 6.17564 0.157883 9.17981 0.0129495 12.3597C-0.131984 15.5395 0.944055 18.6545 3.02078 21.0669C5.0975 23.4793 8.01781 25.0066 11.1838 25.3362V44.4125C11.1838 44.7133 11.3033 45.0018 11.516 45.2144C11.7287 45.4271 12.0172 45.5466 12.318 45.5466C12.6188 45.5466 12.9073 45.4271 13.12 45.2144C13.3326 45.0018 13.4521 44.7133 13.4521 44.4125V25.3362C16.6182 25.0066 19.5385 23.4793 21.6152 21.0669C23.6919 18.6545 24.768 15.5395 24.623 12.3597C24.4781 9.17981 23.1232 6.17564 20.8356 3.96216C18.548 1.74868 15.5009 0.493333 12.318 0.453125ZM12.318 23.136C10.2992 23.136 8.32571 22.5373 6.64713 21.4157C4.96855 20.2941 3.66026 18.7 2.88769 16.8348C2.11513 14.9697 1.91299 12.9174 2.30684 10.9373C2.70069 8.95733 3.67284 7.13857 5.10035 5.71105C6.52787 4.28354 8.34663 3.31139 10.3266 2.91754C12.3067 2.52369 14.359 2.72583 16.2241 3.49839C18.0893 4.27096 19.6834 5.57925 20.805 7.25783C21.9266 8.93641 22.5253 10.9099 22.5253 12.9287C22.5253 14.2691 22.2613 15.5964 21.7483 16.8348C21.2353 18.0733 20.4835 19.1985 19.5356 20.1463C18.5878 21.0942 17.4626 21.846 16.2241 22.359C14.9857 22.872 13.6584 23.136 12.318 23.136Z" fill="#798033"/>
</svg>
